<svg width="103" height="26" viewBox="0 0 103 26" fill="none" xmlns="http://www.w3.org/2000/svg">
<path d="M2.90986 5.99949H6.09624V20.8529C6.09624 21.7877 5.92945 22.5749 5.59589 23.2149C5.26233 23.8633 4.77077 24.3517 4.12121 24.6799C3.47166 25.0168 2.67726 25.1853 1.73802 25.1853C1.45713 25.1853 1.16746 25.1642 0.86901 25.122C0.561784 25.0883 0.272115 25.038 0 24.9706L0.0131668 22.596C0.197502 22.6297 0.395005 22.655 0.605673 22.6719C0.807566 22.6969 1.00068 22.7097 1.18501 22.7097C1.56246 22.7097 1.87847 22.6466 2.13302 22.5202C2.38758 22.394 2.58069 22.196 2.71236 21.9266C2.84404 21.6571 2.90986 21.2993 2.90986 20.8529V5.99949ZM2.63336 2.41244C2.63336 1.94931 2.79575 1.56618 3.12053 1.26305C3.44532 0.951498 3.88859 0.795722 4.45038 0.795722C5.02094 0.795722 5.46423 0.951498 5.78024 1.26305C6.10502 1.56618 6.26741 1.94931 6.26741 2.41244C6.26741 2.86712 6.10502 3.24605 5.78024 3.54917C5.46423 3.85231 5.02094 4.00387 4.45038 4.00387C3.88859 4.00387 3.44532 3.85231 3.12053 3.54917C2.79575 3.24605 2.63336 2.86712 2.63336 2.41244ZM12.9166 5.99949V19.6657H9.73029V5.99949H12.9166ZM9.5196 2.41244C9.5196 1.94931 9.6776 1.56618 9.99361 1.26305C10.3184 0.951498 10.7661 0.795722 11.3366 0.795722C11.8984 0.795722 12.3417 0.951498 12.6665 1.26305C12.9913 1.56618 13.1537 1.94931 13.1537 2.41244C13.1537 2.86712 12.9913 3.24605 12.6665 3.54917C12.3417 3.85231 11.8984 4.00387 11.3366 4.00387C10.7661 4.00387 10.3184 3.85231 9.99361 3.54917C9.6776 3.24605 9.5196 2.86712 9.5196 2.41244ZM20.6851 19.6657H17.5119V4.68592C17.5119 3.66706 17.7094 2.81239 18.1044 2.12193C18.5082 1.42304 19.083 0.896767 19.8293 0.543112C20.5754 0.181038 21.4575 0 22.4757 0C22.7917 0 23.1034 0.0210509 23.4107 0.0631526C23.7177 0.0968339 24.0162 0.151566 24.3059 0.227349L24.227 2.57662C24.0513 2.53453 23.8583 2.50505 23.6477 2.48822C23.4456 2.47137 23.2262 2.46296 22.9892 2.46296C22.5065 2.46296 22.0895 2.55136 21.7384 2.7282C21.396 2.8966 21.1327 3.145 20.9484 3.47339C20.7729 3.80179 20.6851 4.20595 20.6851 4.68592V19.6657ZM23.6213 5.99949V8.22247H15.3262V5.99949H23.6213ZM30.2178 19.6657H27.0446V4.68592C27.0446 3.66706 27.2421 2.81239 27.6372 2.12193C28.0409 1.42304 28.6159 0.896767 29.362 0.543112C30.1081 0.181038 30.9902 0 32.0086 0C32.3246 0 32.6362 0.0210509 32.9434 0.0631526C33.2506 0.0968339 33.5491 0.151566 33.8388 0.227349L33.7597 2.57662C33.5842 2.53453 33.391 2.50505 33.1804 2.48822C32.9785 2.47137 32.7591 2.46296 32.522 2.46296C32.0392 2.46296 31.6223 2.55136 31.2711 2.7282C30.9289 2.8966 30.6656 3.145 30.4811 3.47339C30.3056 3.80179 30.2178 4.20595 30.2178 4.68592V19.6657ZM33.154 5.99949V8.22247H24.8589V5.99949H33.154ZM39.5926 18.1754L43.4637 5.99949H46.8608L41.1462 21.7498C41.0146 22.0865 40.8435 22.4528 40.6328 22.8486C40.4222 23.2443 40.1456 23.619 39.8032 23.9727C39.4698 24.3348 39.0529 24.6253 38.5524 24.8442C38.0521 25.0715 37.4463 25.1853 36.7354 25.1853C36.4545 25.1853 36.1824 25.1601 35.9191 25.1095C35.6645 25.0674 35.4231 25.0211 35.1949 24.9706L35.1818 22.6466C35.2694 22.655 35.3748 22.6634 35.4978 22.6719C35.6294 22.6803 35.7348 22.6844 35.8137 22.6844C36.3403 22.6844 36.7793 22.6213 37.1305 22.4949C37.4815 22.3771 37.7669 22.1833 37.9863 21.9139C38.2145 21.6444 38.4075 21.2824 38.5656 20.8278L39.5926 18.1754ZM37.4069 5.99949L40.7907 16.2302L41.357 19.4384L39.1581 19.9814L33.9836 5.99949H37.4069ZM56.6699 15.965C56.6699 15.6618 56.591 15.3882 56.4329 15.144C56.275 14.8914 55.9721 14.664 55.5245 14.4619C55.0856 14.2598 54.436 14.0746 53.5757 13.9062C52.8209 13.7462 52.1273 13.5568 51.4955 13.3378C50.8722 13.1105 50.3367 12.8368 49.8891 12.5168C49.4414 12.1969 49.0947 11.8179 48.8489 11.3801C48.6032 10.9422 48.4802 10.437 48.4802 9.86443C48.4802 9.3087 48.6074 8.78241 48.862 8.28561C49.1165 7.78881 49.481 7.35096 49.9549 6.97204C50.4289 6.59313 51.0039 6.29421 51.6797 6.07527C52.3645 5.85635 53.1281 5.74689 53.9708 5.74689C55.1645 5.74689 56.1872 5.94054 57.0386 6.32789C57.8989 6.7068 58.5573 7.22466 59.0137 7.88145C59.4701 8.52981 59.6983 9.26237 59.6983 10.0791H56.5251C56.5251 9.71708 56.4286 9.38027 56.2354 9.06872C56.0511 8.74874 55.7702 8.49192 55.3929 8.29825C55.0154 8.09617 54.5414 7.99511 53.9708 7.99511C53.4266 7.99511 52.9745 8.07932 52.6146 8.24773C52.2634 8.40772 52.0001 8.61823 51.8246 8.87926C51.6579 9.14028 51.5743 9.42657 51.5743 9.73812C51.5743 9.96548 51.6183 10.1718 51.7061 10.357C51.8027 10.5339 51.9606 10.6981 52.18 10.8496C52.3995 10.9928 52.6979 11.1275 53.0754 11.2538C53.4617 11.3801 53.9445 11.5022 54.5238 11.6201C55.6123 11.839 56.5471 12.1211 57.3283 12.4663C58.1183 12.8031 58.724 13.241 59.1453 13.7799C59.5667 14.3104 59.7773 14.984 59.7773 15.8008C59.7773 16.407 59.6413 16.9628 59.3692 17.468C59.1058 17.9647 58.7195 18.3984 58.2104 18.769C57.7014 19.1311 57.0913 19.4131 56.3802 19.6152C55.6781 19.8172 54.8881 19.9183 54.0103 19.9183C52.72 19.9183 51.627 19.6994 50.7318 19.2616C49.8364 18.8152 49.1562 18.2469 48.6908 17.5564C48.2344 16.8575 48.0062 16.1334 48.0062 15.384H51.074C51.1092 15.9481 51.2716 16.3986 51.5613 16.7354C51.8597 17.0638 52.2285 17.3038 52.6673 17.4554C53.1149 17.5985 53.5757 17.6701 54.0497 17.6701C54.6203 17.6701 55.0987 17.5985 55.485 17.4554C55.8711 17.3038 56.1653 17.1017 56.3671 16.8491C56.569 16.5881 56.6699 16.2934 56.6699 15.965ZM68.3752 17.4933C68.8931 17.4933 69.3585 17.3964 69.7709 17.2028C70.1924 17.0007 70.5303 16.7228 70.7848 16.3691C71.0481 16.0155 71.193 15.6071 71.2193 15.144H74.2081C74.1907 16.0281 73.9186 16.8323 73.3918 17.5564C72.8651 18.2806 72.1673 18.8573 71.2984 19.2867C70.4294 19.7078 69.4682 19.9183 68.4149 19.9183C67.3264 19.9183 66.3783 19.7415 65.5708 19.3878C64.7632 19.0257 64.0917 18.5289 63.5563 17.8975C63.0208 17.2659 62.617 16.5376 62.3448 15.7124C62.0815 14.8872 61.9499 14.003 61.9499 13.06V12.6179C61.9499 11.6748 62.0815 10.7907 62.3448 9.96548C62.617 9.13186 63.0208 8.39929 63.5563 7.76777C64.0917 7.13624 64.7632 6.64366 65.5708 6.28999C66.3783 5.92792 67.3219 5.74689 68.4016 5.74689C69.5427 5.74689 70.5434 5.96582 71.4036 6.40367C72.2639 6.83312 72.9398 7.43517 73.4314 8.20983C73.9317 8.97608 74.1907 9.86864 74.2081 10.8875H71.2193C71.193 10.3823 71.0612 9.92758 70.8242 9.5234C70.5961 9.11081 70.2712 8.78241 69.85 8.53823C69.4373 8.29404 68.9415 8.17195 68.3622 8.17195C67.7213 8.17195 67.1903 8.29825 66.7689 8.55085C66.3477 8.79505 66.0184 9.13186 65.7814 9.5613C65.5444 9.98232 65.3732 10.4581 65.268 10.9886C65.1714 11.5106 65.1232 12.0537 65.1232 12.6179V13.06C65.1232 13.6241 65.1714 14.1714 65.268 14.7019C65.3644 15.2324 65.5313 15.7081 65.7683 16.1292C66.0141 16.5418 66.3477 16.8744 66.7689 17.127C67.1903 17.3712 67.7258 17.4933 68.3752 17.4933ZM84.6758 16.9249V10.4075C84.6758 9.91916 84.5837 9.49814 84.3992 9.1445C84.215 8.79084 83.9341 8.51719 83.5565 8.32351C83.188 8.12984 82.7226 8.03301 82.1608 8.03301C81.643 8.03301 81.1954 8.11722 80.8178 8.28561C80.4405 8.45403 80.1463 8.68137 79.9357 8.96766C79.7251 9.25396 79.6197 9.57814 79.6197 9.94022H76.4597C76.4597 9.40131 76.5958 8.87926 76.8679 8.37403C77.14 7.86881 77.5349 7.41832 78.0528 7.02256C78.5709 6.6268 79.1897 6.31525 79.9094 6.08791C80.6293 5.86057 81.4368 5.74689 82.332 5.74689C83.4029 5.74689 84.351 5.9195 85.1761 6.26473C86.01 6.60997 86.664 7.13203 87.1379 7.83093C87.6208 8.52138 87.8621 9.38867 87.8621 10.4328V16.5081C87.8621 17.1312 87.906 17.6911 87.9939 18.1879C88.0903 18.6763 88.2264 19.1015 88.4021 19.4637V19.6657H85.1498C85.0006 19.3373 84.8822 18.9205 84.7943 18.4152C84.7153 17.9016 84.6758 17.4049 84.6758 16.9249ZM85.1367 11.3548L85.1631 13.2368H82.885C82.2969 13.2368 81.779 13.2915 81.3314 13.401C80.8838 13.502 80.5106 13.6536 80.2123 13.8557C79.9139 14.0578 79.69 14.302 79.5408 14.5882C79.3915 14.8745 79.3169 15.1987 79.3169 15.5608C79.3169 15.9229 79.4048 16.2555 79.5803 16.5586C79.7558 16.8533 80.0103 17.0849 80.3439 17.2533C80.6863 17.4217 81.0987 17.5059 81.5817 17.5059C82.2311 17.5059 82.7974 17.3796 83.2801 17.127C83.7717 16.8659 84.158 16.5502 84.4389 16.1797C84.7197 15.8008 84.8689 15.4429 84.8865 15.1061L85.9134 16.4576C85.8082 16.8028 85.6282 17.1733 85.3737 17.5691C85.1191 17.9647 84.7855 18.3437 84.3729 18.7059C83.9692 19.0594 83.482 19.35 82.9114 19.5773C82.3496 19.8047 81.7002 19.9183 80.9627 19.9183C80.0323 19.9183 79.2027 19.7415 78.4742 19.3878C77.7457 19.0257 77.1752 18.5416 76.7625 17.9353C76.35 17.3206 76.1437 16.626 76.1437 15.8513C76.1437 15.1271 76.2841 14.4872 76.565 13.9315C76.8547 13.3673 77.2761 12.8958 77.8291 12.5168C78.3909 12.1379 79.0755 11.8516 79.883 11.658C80.6906 11.4559 81.6123 11.3548 82.6481 11.3548H85.1367ZM94.327 8.91714V19.6657H91.1538V5.99949H94.1428L94.327 8.91714ZM93.761 12.3274L92.7338 12.3147C92.7426 11.3464 92.8831 10.4581 93.1552 9.64972C93.4361 8.84136 93.8223 8.14669 94.314 7.56568C94.8143 6.98468 95.4112 6.5384 96.1046 6.22685C96.7981 5.90688 97.5705 5.74689 98.422 5.74689C99.1066 5.74689 99.7254 5.8395 100.278 6.02475C100.84 6.20159 101.319 6.49209 101.714 6.89626C102.117 7.30044 102.425 7.82671 102.635 8.47507C102.846 9.11502 102.951 9.90232 102.951 10.837V19.6657H99.765V10.8244C99.765 10.1676 99.6641 9.64972 99.4621 9.2708C99.269 8.88347 98.9838 8.6098 98.6063 8.44981C98.2375 8.28142 97.7769 8.19721 97.2238 8.19721C96.6796 8.19721 96.1924 8.30668 95.7622 8.52559C95.3321 8.74453 94.9679 9.04346 94.6694 9.42236C94.3797 9.80128 94.1559 10.2391 93.9979 10.7359C93.8398 11.2327 93.761 11.7632 93.761 12.3274Z" fill="black"/>
</svg>
